<?xml version="1.0" encoding="utf-8" standalone="no"?>
<!DOCTYPE svg PUBLIC "-//W3C//DTD SVG 1.1//EN"
  "http://www.w3.org/Graphics/SVG/1.1/DTD/svg11.dtd">
<svg xmlns:xlink="http://www.w3.org/1999/xlink" width="468pt" height="648pt" viewBox="0 0 468 648" xmlns="http://www.w3.org/2000/svg" version="1.1">
 <metadata>
  <rdf:RDF xmlns:dc="http://purl.org/dc/elements/1.1/" xmlns:cc="http://creativecommons.org/ns#" xmlns:rdf="http://www.w3.org/1999/02/22-rdf-syntax-ns#">
   <cc:Work>
    <dc:type rdf:resource="http://purl.org/dc/dcmitype/StillImage"/>
    <dc:date>2024-04-11T10:25:22.965218</dc:date>
    <dc:format>image/svg+xml</dc:format>
    <dc:creator>
     <cc:Agent>
      <dc:title>Matplotlib v3.8.2, https://matplotlib.org/</dc:title>
     </cc:Agent>
    </dc:creator>
   </cc:Work>
  </rdf:RDF>
 </metadata>
 <defs>
  <style type="text/css">*{stroke-linejoin: round; stroke-linecap: butt}</style>
 </defs>
 <g id="figure_1">
  <g id="patch_1">
   <path d="M 0 648 
L 468 648 
L 468 0 
L 0 0 
z
" style="fill: #ffffff"/>
  </g>
  <g id="axes_1">
   <g id="patch_2">
    <path d="M 23.4 87.418868 
L 444.6 87.418868 
L 444.6 32.4 
L 23.4 32.4 
z
" style="fill: #ffffff"/>
   </g>
   <g id="matplotlib.axis_1"/>
   <g id="matplotlib.axis_2">
    <g id="text_1">
     <!-- Revenue -->
     <g transform="translate(16.295 89.133184) rotate(-90) scale(0.16 -0.16)">
      <defs>
       <path id="NewCM10-Book-52" d="M 3910 3206 
Q 3910 2829 3600 2560 
Q 3290 2291 2867 2170 
Q 3437 1946 3578 1446 
L 3661 941 
Q 3686 774 3744 448 
Q 3827 51 4083 51 
Q 4422 51 4474 589 
Q 4486 710 4576 710 
Q 4685 710 4685 582 
Q 4685 384 4570 160 
Q 4422 -141 4058 -141 
Q 3616 -141 3318 73 
Q 3021 288 2989 678 
Q 2976 794 2976 1056 
Q 2976 1395 2957 1504 
Q 2906 1766 2694 1929 
Q 2483 2093 2176 2093 
L 1472 2093 
L 1472 518 
Q 1472 346 1542 294 
Q 1613 243 1946 243 
L 2125 243 
L 2125 -6 
Q 1869 19 1171 19 
Q 480 19 224 -6 
L 224 243 
L 403 243 
Q 736 243 806 294 
Q 877 346 877 518 
L 877 3853 
Q 877 4026 806 4074 
Q 736 4122 403 4122 
L 224 4122 
L 224 4371 
L 2234 4371 
Q 2829 4371 3322 4090 
Q 3910 3757 3910 3206 
z
M 3008 3840 
Q 2816 4026 2598 4074 
Q 2381 4122 1958 4122 
Q 1651 4122 1587 4109 
Q 1472 4102 1472 3898 
L 1472 2285 
L 2150 2285 
Q 2810 2285 3027 2586 
Q 3213 2842 3213 3206 
Q 3213 3661 3008 3840 
z
" transform="scale(0.015625)"/>
       <path id="NewCM10-Book-65" d="M 2656 1606 
Q 2656 1504 2621 1478 
Q 2586 1453 2477 1453 
L 749 1453 
Q 755 838 934 544 
Q 1190 134 1619 134 
Q 2234 134 2445 768 
Q 2470 870 2547 870 
Q 2656 870 2656 774 
Q 2656 621 2419 307 
Q 2131 -70 1581 -70 
Q 986 -70 582 368 
Q 179 806 179 1408 
Q 179 1997 544 2419 
Q 934 2867 1510 2867 
Q 2042 2867 2349 2518 
Q 2656 2170 2656 1606 
z
M 2086 2234 
Q 1939 2682 1510 2682 
Q 1312 2682 1075 2490 
Q 787 2266 755 1632 
L 2189 1632 
Q 2189 1914 2086 2234 
z
" transform="scale(0.015625)"/>
       <path id="NewCM10-Book-76" d="M 2483 2266 
Q 2483 2502 2182 2515 
L 2182 2758 
L 2752 2739 
Q 2938 2733 3251 2758 
L 3251 2515 
Q 2886 2515 2752 2285 
Q 2707 2208 2669 2106 
L 1843 64 
Q 1792 -70 1689 -70 
Q 1587 -70 1536 64 
L 627 2298 
Q 602 2368 570 2406 
Q 538 2445 518 2470 
Q 499 2496 422 2505 
Q 346 2515 310 2515 
Q 275 2515 122 2515 
L 122 2758 
Q 525 2733 755 2739 
L 1472 2758 
L 1472 2515 
Q 1107 2515 1107 2374 
Q 1107 2368 1146 2278 
L 1830 582 
L 2445 2125 
Q 2483 2221 2483 2266 
z
" transform="scale(0.015625)"/>
       <path id="NewCM10-Book-6e" d="M 2010 2643 
Q 1645 2643 1414 2352 
Q 1184 2061 1184 1658 
L 1184 506 
Q 1184 320 1251 281 
Q 1318 243 1670 243 
L 1670 0 
L 941 19 
L 205 0 
L 205 243 
Q 557 243 627 281 
Q 698 320 698 506 
L 698 2189 
Q 698 2406 624 2460 
Q 550 2515 205 2515 
L 205 2758 
L 1146 2829 
L 1146 2253 
Q 1446 2829 2048 2829 
Q 2810 2829 2906 2240 
Q 2931 2061 2931 1606 
L 2931 410 
Q 2931 294 3024 268 
Q 3117 243 3424 243 
L 3424 0 
L 2694 19 
L 1958 0 
L 1958 243 
Q 2310 243 2377 281 
Q 2445 320 2445 506 
L 2445 1965 
Q 2445 2643 2010 2643 
z
" transform="scale(0.015625)"/>
       <path id="NewCM10-Book-75" d="M 1709 115 
Q 2048 115 2246 393 
Q 2445 672 2445 1069 
L 2445 2189 
Q 2445 2406 2371 2460 
Q 2298 2515 1958 2515 
L 1958 2758 
L 2931 2829 
L 2931 570 
Q 2931 352 3004 297 
Q 3078 243 3424 243 
L 3424 0 
L 2464 -70 
L 2464 416 
Q 2195 -70 1677 -70 
Q 1318 -70 1075 58 
Q 832 186 762 429 
Q 698 646 698 1018 
L 698 1958 
Q 698 2381 640 2448 
Q 582 2515 205 2515 
L 205 2758 
L 1184 2829 
L 1184 717 
Q 1184 384 1289 249 
Q 1395 115 1709 115 
z
" transform="scale(0.015625)"/>
      </defs>
      <use xlink:href="#NewCM10-Book-52"/>
      <use xlink:href="#NewCM10-Book-65" x="73.599991"/>
      <use xlink:href="#NewCM10-Book-76" x="117.999985"/>
      <use xlink:href="#NewCM10-Book-65" x="168.049973"/>
      <use xlink:href="#NewCM10-Book-6e" x="212.449966"/>
      <use xlink:href="#NewCM10-Book-75" x="265.299957"/>
      <use xlink:href="#NewCM10-Book-65" x="320.899948"/>
     </g>
    </g>
   </g>
   <g id="line2d_1">
    <path d="M 23.4 79.331893 
L 33.162914 78.921122 
L 42.925828 77.269005 
L 52.796026 75.093266 
L 62.666225 75.467678 
L 72.321854 73.371761 
L 82.084768 71.314252 
L 91.954967 69.862008 
L 101.825166 71.190524 
L 111.480795 69.178291 
L 121.243709 71.282187 
L 131.113907 73.225907 
L 140.984106 79.556511 
L 150.639735 77.379345 
L 160.402649 79.99578 
L 170.272848 80.312624 
L 180.143046 84.91801 
L 189.90596 83.120149 
L 199.668874 81.102201 
L 209.539073 81.337764 
L 219.409272 78.116905 
L 229.064901 77.335514 
L 238.827815 75.377569 
L 248.698013 68.320612 
L 258.568212 70.001337 
L 268.223841 68.281561 
L 277.986755 66.235223 
L 287.856954 64.933984 
L 297.727152 69.009084 
L 307.382781 65.37529 
L 317.145695 66.659251 
L 327.015894 60.979336 
L 336.886093 75.14206 
L 346.649007 83.609849 
L 356.411921 72.238984 
L 366.282119 63.507101 
L 376.152318 64.818257 
L 385.807947 56.941996 
L 395.570861 54.299854 
L 405.44106 43.936678 
L 415.311258 47.122618 
L 424.966887 41.777955 
L 434.729801 42.503111 
L 444.6 34.900858 
" clip-path="url(#p45d60f1943)" style="fill: none; stroke: #0000ff; stroke-width: 1.5; stroke-linecap: square"/>
   </g>
   <g id="patch_3">
    <path d="M 23.4 87.418868 
L 23.4 32.4 
" style="fill: none; stroke: #000000; stroke-width: 0.8; stroke-linejoin: miter; stroke-linecap: square"/>
   </g>
   <g id="patch_4">
    <path d="M 23.4 87.418868 
L 444.6 87.418868 
" style="fill: none; stroke: #000000; stroke-width: 0.8; stroke-linejoin: miter; stroke-linecap: square"/>
   </g>
  </g>
  <g id="axes_2">
   <g id="patch_5">
    <path d="M 23.4 153.441509 
L 444.6 153.441509 
L 444.6 98.422642 
L 23.4 98.422642 
z
" style="fill: #ffffff"/>
   </g>
   <g id="matplotlib.axis_3"/>
   <g id="matplotlib.axis_4">
    <g id="text_2">
     <!-- EBITDA -->
     <g transform="translate(16.295 157.599575) rotate(-90) scale(0.16 -0.16)">
      <defs>
       <path id="NewCM10-Book-45" d="M 1472 474 
Q 1472 307 1517 278 
Q 1562 250 1760 250 
L 2598 250 
Q 3155 250 3392 403 
Q 3680 582 3782 867 
Q 3885 1152 3968 1683 
L 4179 1683 
L 3904 0 
L 211 0 
L 211 250 
L 390 250 
Q 723 250 793 298 
Q 864 346 864 518 
L 864 3834 
Q 864 4006 793 4054 
Q 723 4102 390 4102 
L 211 4102 
L 211 4352 
L 3814 4352 
L 4000 2880 
L 3789 2880 
Q 3750 3174 3731 3292 
Q 3712 3411 3654 3558 
Q 3597 3706 3501 3827 
Q 3264 4102 2573 4102 
L 1760 4102 
Q 1562 4102 1517 4073 
Q 1472 4045 1472 3878 
L 1472 2387 
L 2016 2387 
Q 2445 2387 2560 2531 
Q 2675 2675 2675 3123 
L 2886 3123 
L 2886 1395 
L 2675 1395 
Q 2675 1843 2560 1990 
Q 2445 2138 2016 2138 
L 1472 2138 
L 1472 474 
z
" transform="scale(0.015625)"/>
       <path id="NewCM10-Book-42" d="M 3059 2291 
Q 3501 2208 3833 1907 
Q 4166 1606 4166 1184 
Q 4166 646 3706 307 
Q 3283 0 2733 0 
L 230 0 
L 230 250 
L 410 250 
Q 742 250 812 298 
Q 883 346 883 518 
L 883 3853 
Q 883 4026 812 4074 
Q 742 4122 410 4122 
L 230 4122 
L 230 4371 
L 2566 4371 
Q 3098 4371 3514 4096 
Q 3994 3782 3994 3277 
Q 3994 2918 3712 2652 
Q 3430 2387 3059 2291 
z
M 3334 3277 
Q 3334 3635 3104 3878 
Q 2874 4122 2522 4122 
L 1741 4122 
Q 1542 4122 1500 4093 
Q 1459 4064 1459 3898 
L 1459 2368 
L 2349 2368 
Q 2758 2368 3046 2624 
Q 3334 2880 3334 3277 
z
M 3482 1190 
Q 3482 1606 3242 1891 
Q 3002 2176 2618 2176 
L 1459 2176 
L 1459 474 
Q 1459 307 1500 278 
Q 1542 250 1741 250 
L 2528 250 
Q 2976 250 3226 538 
Q 3462 800 3482 1024 
L 3482 1190 
z
" transform="scale(0.015625)"/>
       <path id="NewCM10-Book-49" d="M 1152 19 
Q 422 19 179 0 
L 179 250 
L 365 250 
Q 710 250 780 298 
Q 851 346 851 518 
L 851 3853 
Q 851 4026 780 4074 
Q 710 4122 365 4122 
L 179 4122 
L 179 4371 
Q 422 4352 1158 4352 
Q 1888 4352 2131 4371 
L 2131 4122 
L 1946 4122 
Q 1600 4122 1529 4074 
Q 1459 4026 1459 3853 
L 1459 518 
Q 1459 346 1529 298 
Q 1600 250 1946 250 
L 2131 250 
L 2131 0 
Q 1888 19 1152 19 
z
" transform="scale(0.015625)"/>
       <path id="NewCM10-Book-54" d="M 4179 2861 
Q 4173 2899 4163 2998 
Q 4154 3098 4150 3136 
Q 4147 3174 4137 3260 
Q 4128 3347 4118 3388 
Q 4109 3430 4096 3500 
Q 4083 3571 4067 3612 
Q 4051 3654 4032 3705 
Q 4013 3757 3987 3798 
Q 3962 3840 3936 3872 
Q 3821 4006 3616 4044 
Q 3411 4083 3066 4083 
Q 2656 4083 2633 4025 
Q 2611 3968 2611 3859 
L 2611 525 
Q 2611 403 2637 358 
Q 2694 250 3251 250 
L 3533 250 
L 3533 0 
Q 3245 19 2304 19 
Q 1370 19 1082 0 
L 1082 250 
L 1363 250 
Q 1920 250 1978 358 
Q 2003 403 2003 525 
L 2003 3859 
Q 2003 3936 1996 3971 
Q 1990 4006 1968 4035 
Q 1946 4064 1888 4077 
Q 1830 4083 1549 4083 
Q 1197 4083 995 4044 
Q 794 4006 685 3872 
Q 653 3840 627 3798 
Q 602 3757 582 3705 
Q 563 3654 547 3612 
Q 531 3571 518 3500 
Q 506 3430 496 3388 
Q 486 3347 476 3260 
Q 467 3174 464 3136 
Q 461 3098 451 2995 
Q 442 2893 435 2861 
L 230 2861 
L 352 4333 
L 4262 4333 
L 4384 2861 
L 4179 2861 
z
" transform="scale(0.015625)"/>
       <path id="NewCM10-Book-44" d="M 2566 0 
L 224 0 
L 224 250 
L 403 250 
Q 736 250 806 298 
Q 877 346 877 518 
L 877 3853 
Q 877 4026 806 4074 
Q 736 4122 403 4122 
L 224 4122 
L 224 4371 
L 2566 4371 
Q 3424 4371 3994 3680 
Q 4525 3034 4525 2150 
Q 4525 1286 3981 659 
Q 3418 0 2566 0 
z
M 2394 250 
Q 3130 250 3485 758 
Q 3840 1267 3840 2150 
Q 3840 3098 3520 3546 
Q 3098 4122 2387 4122 
L 1754 4122 
Q 1555 4122 1513 4093 
Q 1472 4064 1472 3898 
L 1472 474 
Q 1472 307 1513 278 
Q 1555 250 1754 250 
L 2394 250 
z
" transform="scale(0.015625)"/>
       <path id="NewCM10-Book-41" d="M 3731 19 
Q 3200 32 2797 0 
L 2797 250 
Q 3322 250 3322 410 
Q 3322 435 3302 493 
L 2976 1440 
L 1453 1440 
L 1165 627 
Q 1152 608 1152 544 
Q 1152 250 1626 250 
L 1626 0 
L 877 19 
L 205 0 
L 205 243 
Q 781 256 915 653 
L 2227 4442 
Q 2272 4582 2400 4582 
Q 2528 4582 2566 4442 
L 3936 480 
Q 3994 314 4134 269 
Q 4205 250 4448 250 
L 4589 250 
L 4589 0 
L 3731 19 
z
M 2208 3642 
L 1536 1690 
L 2886 1690 
L 2208 3642 
z
" transform="scale(0.015625)"/>
      </defs>
      <use xlink:href="#NewCM10-Book-45"/>
      <use xlink:href="#NewCM10-Book-42" x="68.099991"/>
      <use xlink:href="#NewCM10-Book-49" x="138.899979"/>
      <use xlink:href="#NewCM10-Book-54" x="174.999969"/>
      <use xlink:href="#NewCM10-Book-44" x="247.199951"/>
      <use xlink:href="#NewCM10-Book-41" x="320.849945"/>
     </g>
    </g>
   </g>
   <g id="line2d_2">
    <path d="M 23.4 137.613398 
L 33.162914 138.304498 
L 42.925828 136.571979 
L 52.796026 143.623731 
L 62.666225 134.969293 
L 72.321854 135.682582 
L 82.084768 131.858114 
L 91.954967 133.728714 
L 101.825166 132.471904 
L 111.480795 129.966242 
L 121.243709 131.88836 
L 131.113907 142.172696 
L 140.984106 138.936987 
L 150.639735 136.436192 
L 160.402649 140.201522 
L 170.272848 147.260052 
L 180.143046 143.007469 
L 189.90596 141.086634 
L 199.668874 137.93305 
L 209.539073 140.168673 
L 219.409272 136.71151 
L 229.064901 134.868735 
L 238.827815 132.51222 
L 248.698013 129.576373 
L 258.568212 129.849238 
L 268.223841 125.922246 
L 277.986755 122.018302 
L 287.856954 131.193969 
L 297.727152 126.708623 
L 307.382781 124.010272 
L 317.145695 123.66006 
L 327.015894 122.494674 
L 336.886093 150.940652 
L 346.649007 142.331525 
L 356.411921 127.066943 
L 366.282119 123.326968 
L 376.152318 117.695047 
L 385.807947 110.363945 
L 395.570861 112.693518 
L 405.44106 103.762817 
L 415.311258 109.815129 
L 424.966887 107.310949 
L 434.729801 108.547859 
L 444.6 100.923499 
" clip-path="url(#p53982dc1c1)" style="fill: none; stroke: #0000ff; stroke-width: 1.5; stroke-linecap: square"/>
   </g>
   <g id="patch_6">
    <path d="M 23.4 153.441509 
L 23.4 98.422642 
" style="fill: none; stroke: #000000; stroke-width: 0.8; stroke-linejoin: miter; stroke-linecap: square"/>
   </g>
   <g id="patch_7">
    <path d="M 23.4 153.441509 
L 444.6 153.441509 
" style="fill: none; stroke: #000000; stroke-width: 0.8; stroke-linejoin: miter; stroke-linecap: square"/>
   </g>
  </g>
  <g id="axes_3">
   <g id="patch_8">
    <path d="M 23.4 219.464151 
L 444.6 219.464151 
L 444.6 164.445283 
L 23.4 164.445283 
z
" style="fill: #ffffff"/>
   </g>
   <g id="matplotlib.axis_5"/>
   <g id="matplotlib.axis_6">
    <g id="text_3">
     <!-- EBIT -->
     <g transform="translate(16.295 211.729717) rotate(-90) scale(0.16 -0.16)">
      <use xlink:href="#NewCM10-Book-45"/>
      <use xlink:href="#NewCM10-Book-42" x="68.099991"/>
      <use xlink:href="#NewCM10-Book-49" x="138.899979"/>
      <use xlink:href="#NewCM10-Book-54" x="174.999969"/>
     </g>
    </g>
   </g>
   <g id="line2d_3">
    <path d="M 23.4 193.572538 
L 33.162914 194.679878 
L 42.925828 194.065819 
L 52.796026 202.359501 
L 62.666225 192.530801 
L 72.321854 193.713386 
L 82.084768 190.436599 
L 91.954967 192.960601 
L 101.825166 191.431607 
L 111.480795 189.277771 
L 121.243709 190.876282 
L 131.113907 204.015632 
L 140.984106 198.584455 
L 150.639735 196.318112 
L 160.402649 201.090159 
L 170.272848 210.048073 
L 180.143046 203.089583 
L 189.90596 201.406677 
L 199.668874 198.539085 
L 209.539073 200.907425 
L 219.409272 197.659079 
L 229.064901 195.480329 
L 238.827815 193.71697 
L 248.698013 192.176454 
L 258.568212 191.342302 
L 268.223841 187.169735 
L 277.986755 183.643684 
L 287.856954 194.428507 
L 297.727152 189.732612 
L 307.382781 187.645801 
L 317.145695 187.508645 
L 327.015894 189.513712 
L 336.886093 216.963293 
L 346.649007 210.923525 
L 356.411921 192.66058 
L 366.282119 189.553428 
L 376.152318 181.890471 
L 385.807947 174.9972 
L 395.570861 177.404162 
L 405.44106 169.392885 
L 415.311258 173.828376 
L 424.966887 170.549171 
L 434.729801 172.303304 
L 444.6 166.946141 
" clip-path="url(#pada7553327)" style="fill: none; stroke: #0000ff; stroke-width: 1.5; stroke-linecap: square"/>
   </g>
   <g id="patch_9">
    <path d="M 23.4 219.464151 
L 23.4 164.445283 
" style="fill: none; stroke: #000000; stroke-width: 0.8; stroke-linejoin: miter; stroke-linecap: square"/>
   </g>
   <g id="patch_10">
    <path d="M 23.4 219.464151 
L 444.6 219.464151 
" style="fill: none; stroke: #000000; stroke-width: 0.8; stroke-linejoin: miter; stroke-linecap: square"/>
   </g>
  </g>
  <g id="axes_4">
   <g id="patch_11">
    <path d="M 23.4 285.486792 
L 444.6 285.486792 
L 444.6 230.467925 
L 23.4 230.467925 
z
" style="fill: #ffffff"/>
   </g>
   <g id="matplotlib.axis_7"/>
   <g id="matplotlib.axis_8">
    <g id="text_4">
     <!-- EBT -->
     <g transform="translate(16.295 274.864858) rotate(-90) scale(0.16 -0.16)">
      <use xlink:href="#NewCM10-Book-45"/>
      <use xlink:href="#NewCM10-Book-42" x="68.099991"/>
      <use xlink:href="#NewCM10-Book-54" x="138.899979"/>
     </g>
    </g>
   </g>
   <g id="line2d_4">
    <path d="M 23.4 252.702292 
L 33.162914 257.331702 
L 42.925828 256.331479 
L 52.796026 265.033032 
L 62.666225 251.408029 
L 72.321854 253.286721 
L 82.084768 250.522475 
L 91.954967 255.105251 
L 101.825166 251.581694 
L 111.480795 250.187872 
L 121.243709 251.550916 
L 131.113907 265.742413 
L 140.984106 258.262161 
L 150.639735 256.627656 
L 160.402649 261.78433 
L 170.272848 270.645007 
L 180.143046 262.12231 
L 189.90596 259.910106 
L 199.668874 257.895117 
L 209.539073 261.546928 
L 219.409272 254.92488 
L 229.064901 256.380406 
L 238.827815 253.37896 
L 248.698013 258.744475 
L 258.568212 249.913704 
L 268.223841 251.436873 
L 277.986755 246.054883 
L 287.856954 260.84168 
L 297.727152 252.478547 
L 307.382781 252.773825 
L 317.145695 254.951538 
L 327.015894 254.464226 
L 336.886093 282.985935 
L 346.649007 273.387596 
L 356.411921 258.09103 
L 366.282119 255.143628 
L 376.152318 242.423822 
L 385.807947 236.914175 
L 395.570861 240.105738 
L 405.44106 232.968782 
L 415.311258 241.984996 
L 424.966887 239.283576 
L 434.729801 241.745229 
L 444.6 242.485798 
" clip-path="url(#pec25c12a57)" style="fill: none; stroke: #0000ff; stroke-width: 1.5; stroke-linecap: square"/>
   </g>
   <g id="patch_12">
    <path d="M 23.4 285.486792 
L 23.4 230.467925 
" style="fill: none; stroke: #000000; stroke-width: 0.8; stroke-linejoin: miter; stroke-linecap: square"/>
   </g>
   <g id="patch_13">
    <path d="M 23.4 285.486792 
L 444.6 285.486792 
" style="fill: none; stroke: #000000; stroke-width: 0.8; stroke-linejoin: miter; stroke-linecap: square"/>
   </g>
  </g>
  <g id="axes_5">
   <g id="patch_14">
    <path d="M 23.4 351.509434 
L 444.6 351.509434 
L 444.6 296.490566 
L 23.4 296.490566 
z
" style="fill: #ffffff"/>
   </g>
   <g id="matplotlib.axis_9"/>
   <g id="matplotlib.axis_10">
    <g id="text_5">
     <!-- NI -->
     <g transform="translate(16.295 332.8875) rotate(-90) scale(0.16 -0.16)">
      <defs>
       <path id="NewCM10-Book-4e" d="M 1088 3910 
L 3686 96 
Q 3750 0 3814 0 
Q 3891 0 3910 38 
Q 3930 77 3930 192 
L 3930 3680 
Q 3930 3840 4006 3962 
Q 4109 4122 4582 4122 
L 4582 4371 
L 3814 4352 
L 3053 4371 
L 3053 4122 
Q 3526 4122 3629 3962 
Q 3706 3840 3706 3680 
L 3706 1062 
L 1517 4275 
Q 1453 4371 1312 4371 
L 211 4371 
L 211 4122 
L 422 4122 
Q 806 4122 851 4083 
Q 864 4070 864 3994 
L 864 691 
Q 864 531 787 410 
Q 685 250 211 250 
L 211 0 
L 973 19 
L 1741 0 
L 1741 250 
Q 1267 250 1165 410 
Q 1088 531 1088 691 
L 1088 3910 
z
" transform="scale(0.015625)"/>
      </defs>
      <use xlink:href="#NewCM10-Book-4e"/>
      <use xlink:href="#NewCM10-Book-49" x="74.999985"/>
     </g>
    </g>
   </g>
   <g id="line2d_5">
    <path d="M 23.4 323.755724 
L 33.162914 327.316661 
L 42.925828 327.974372 
L 52.796026 330.171744 
L 62.666225 316.188958 
L 72.321854 324.526516 
L 82.084768 318.650209 
L 91.954967 324.606286 
L 101.825166 323.127011 
L 111.480795 320.912778 
L 121.243709 322.328102 
L 131.113907 333.50045 
L 140.984106 326.865724 
L 150.639735 326.52389 
L 160.402649 329.830844 
L 170.272848 337.772898 
L 180.143046 330.44181 
L 189.90596 328.748195 
L 199.668874 326.61371 
L 209.539073 330.460066 
L 219.409272 324.750267 
L 229.064901 325.599302 
L 238.827815 322.234766 
L 248.698013 325.986749 
L 258.568212 316.812742 
L 268.223841 318.012079 
L 277.986755 313.362267 
L 287.856954 325.777796 
L 297.727152 319.929814 
L 307.382781 318.303612 
L 317.145695 322.067687 
L 327.015894 319.005407 
L 336.886093 349.008576 
L 346.649007 341.181441 
L 356.411921 323.688846 
L 366.282119 321.302867 
L 376.152318 309.665531 
L 385.807947 304.942457 
L 395.570861 307.399693 
L 405.44106 298.991424 
L 415.311258 310.523927 
L 424.966887 308.04938 
L 434.729801 311.374851 
L 444.6 311.50317 
" clip-path="url(#pb87fd62982)" style="fill: none; stroke: #0000ff; stroke-width: 1.5; stroke-linecap: square"/>
   </g>
   <g id="patch_15">
    <path d="M 23.4 351.509434 
L 23.4 296.490566 
" style="fill: none; stroke: #000000; stroke-width: 0.8; stroke-linejoin: miter; stroke-linecap: square"/>
   </g>
   <g id="patch_16">
    <path d="M 23.4 351.509434 
L 444.6 351.509434 
" style="fill: none; stroke: #000000; stroke-width: 0.8; stroke-linejoin: miter; stroke-linecap: square"/>
   </g>
  </g>
  <g id="axes_6">
   <g id="patch_17">
    <path d="M 23.4 417.532075 
L 444.6 417.532075 
L 444.6 362.513208 
L 23.4 362.513208 
z
" style="fill: #ffffff"/>
   </g>
   <g id="matplotlib.axis_11"/>
   <g id="matplotlib.axis_12">
    <g id="text_6">
     <!-- Π -->
     <g transform="translate(16.295 396.022642) rotate(-90) scale(0.16 -0.16)">
      <defs>
       <path id="NewCM10-Book-3a0" d="M 4589 4352 
L 4589 4096 
L 4154 4096 
Q 3981 4070 3936 3936 
L 3936 416 
Q 3981 282 4154 256 
L 4589 256 
L 4589 0 
L 4499 0 
Q 4416 13 3635 13 
Q 2848 13 2758 0 
L 2669 0 
L 2669 256 
L 3104 256 
Q 3277 282 3315 416 
L 3315 4096 
L 1478 4096 
L 1478 416 
Q 1523 282 1690 256 
L 2125 256 
L 2125 0 
L 2035 0 
Q 1952 13 1171 13 
Q 390 13 294 0 
L 205 0 
L 205 256 
L 640 256 
Q 813 282 858 416 
L 858 3936 
Q 813 4070 640 4096 
L 205 4096 
L 205 4352 
L 269 4352 
Q 275 4352 412 4349 
Q 550 4346 710 4342 
Q 870 4339 1040 4336 
Q 1210 4333 1280 4339 
Q 1485 4352 2400 4352 
Q 2982 4352 3292 4345 
Q 3603 4339 3622 4336 
Q 3642 4333 4051 4339 
Q 4499 4352 4525 4352 
L 4589 4352 
z
" transform="scale(0.015625)"/>
      </defs>
      <use xlink:href="#NewCM10-Book-3a0"/>
     </g>
    </g>
   </g>
   <g id="line2d_6">
    <path d="M 23.4 389.679738 
L 33.162914 391.232968 
L 42.925828 391.498229 
L 52.796026 399.101623 
L 62.666225 393.239846 
L 72.321854 394.548028 
L 82.084768 386.213555 
L 91.954967 379.45148 
L 101.825166 390.584054 
L 111.480795 387.91293 
L 121.243709 385.309318 
L 131.113907 397.350865 
L 140.984106 391.632131 
L 150.639735 395.904258 
L 160.402649 398.992944 
L 170.272848 406.91808 
L 180.143046 396.823476 
L 189.90596 400.189222 
L 199.668874 399.584057 
L 209.539073 403.721269 
L 219.409272 402.076319 
L 229.064901 401.11019 
L 238.827815 401.340663 
L 248.698013 402.780958 
L 258.568212 394.425943 
L 268.223841 391.116241 
L 277.986755 388.792119 
L 287.856954 399.485314 
L 297.727152 396.065305 
L 307.382781 390.795165 
L 317.145695 387.996392 
L 327.015894 390.493892 
L 336.886093 415.031218 
L 346.649007 407.981609 
L 356.411921 398.608443 
L 366.282119 392.888083 
L 376.152318 375.533579 
L 385.807947 369.976022 
L 395.570861 370.541423 
L 405.44106 365.014065 
L 415.311258 378.357952 
L 424.966887 380.560748 
L 434.729801 396.650624 
L 444.6 398.556789 
" clip-path="url(#p3cf20c6750)" style="fill: none; stroke: #0000ff; stroke-width: 1.5; stroke-linecap: square"/>
   </g>
   <g id="patch_18">
    <path d="M 23.4 417.532075 
L 23.4 362.513208 
" style="fill: none; stroke: #000000; stroke-width: 0.8; stroke-linejoin: miter; stroke-linecap: square"/>
   </g>
   <g id="patch_19">
    <path d="M 23.4 417.532075 
L 444.6 417.532075 
" style="fill: none; stroke: #000000; stroke-width: 0.8; stroke-linejoin: miter; stroke-linecap: square"/>
   </g>
  </g>
  <g id="axes_7">
   <g id="patch_20">
    <path d="M 23.4 483.554717 
L 444.6 483.554717 
L 444.6 428.535849 
L 23.4 428.535849 
z
" style="fill: #ffffff"/>
   </g>
   <g id="matplotlib.axis_13"/>
   <g id="matplotlib.axis_14">
    <g id="text_7">
     <!-- Assets -->
     <g transform="translate(16.295 478.167783) rotate(-90) scale(0.16 -0.16)">
      <defs>
       <path id="NewCM10-Book-73" d="M 2304 832 
Q 2304 403 2022 166 
Q 1741 -70 1274 -70 
Q 870 -70 589 192 
Q 538 141 502 93 
Q 467 45 403 -6 
Q 333 -70 307 -70 
Q 211 -70 211 109 
L 211 934 
Q 211 1120 320 1120 
Q 403 1120 429 992 
Q 614 115 1274 115 
Q 1952 115 1952 666 
Q 1952 1101 1325 1222 
Q 1069 1267 966 1289 
Q 864 1312 729 1369 
Q 595 1427 486 1517 
Q 211 1741 211 2067 
Q 211 2458 496 2662 
Q 781 2867 1235 2867 
Q 1581 2867 1824 2701 
Q 1843 2714 1894 2762 
Q 1946 2810 1984 2838 
Q 2022 2867 2054 2867 
Q 2150 2867 2150 2688 
L 2150 2054 
Q 2150 1882 2042 1882 
Q 1946 1882 1939 1958 
Q 1888 2694 1235 2694 
Q 563 2694 563 2246 
Q 563 2061 713 1952 
Q 864 1843 1312 1754 
Q 2304 1562 2304 832 
z
" transform="scale(0.015625)"/>
       <path id="NewCM10-Book-74" d="M 2125 806 
Q 2125 442 1955 186 
Q 1786 -70 1485 -70 
Q 1248 -70 992 64 
Q 653 243 653 806 
L 653 2528 
L 122 2528 
L 122 2714 
Q 691 2739 858 3373 
Q 922 3622 928 3936 
L 1133 3936 
L 1133 2771 
L 2022 2771 
L 2022 2528 
L 1133 2528 
L 1133 794 
Q 1133 141 1523 141 
Q 1722 141 1821 342 
Q 1920 544 1920 819 
L 1920 1190 
L 2125 1190 
L 2125 806 
z
" transform="scale(0.015625)"/>
      </defs>
      <use xlink:href="#NewCM10-Book-41"/>
      <use xlink:href="#NewCM10-Book-73" x="74.999985"/>
      <use xlink:href="#NewCM10-Book-73" x="114.399979"/>
      <use xlink:href="#NewCM10-Book-65" x="153.799973"/>
      <use xlink:href="#NewCM10-Book-74" x="198.199966"/>
      <use xlink:href="#NewCM10-Book-73" x="237.09996"/>
     </g>
    </g>
   </g>
   <g id="line2d_7">
    <path d="M 23.4 481.053859 
L 33.162914 479.103157 
L 42.925828 476.911224 
L 52.796026 476.251896 
L 62.666225 474.006673 
L 72.321854 474.842029 
L 82.084768 472.798671 
L 91.954967 472.368645 
L 101.825166 471.640641 
L 111.480795 470.245419 
L 121.243709 470.649246 
L 131.113907 471.393649 
L 140.984106 472.068085 
L 150.639735 471.058665 
L 160.402649 471.870579 
L 170.272848 474.144131 
L 180.143046 473.147605 
L 189.90596 480.241762 
L 199.668874 479.031276 
L 209.539073 480.692022 
L 219.409272 477.979543 
L 229.064901 475.807946 
L 238.827815 473.327885 
L 248.698013 471.301885 
L 258.568212 468.429994 
L 268.223841 468.427648 
L 277.986755 466.871148 
L 287.856954 465.85213 
L 297.727152 461.559123 
L 307.382781 459.824032 
L 317.145695 458.022483 
L 327.015894 456.127884 
L 336.886093 454.100131 
L 346.649007 450.089097 
L 356.411921 447.714499 
L 366.282119 443.661539 
L 376.152318 440.600309 
L 385.807947 437.388554 
L 395.570861 434.778312 
L 405.44106 433.271298 
L 415.311258 431.036707 
L 424.966887 432.385327 
L 434.729801 433.440208 
L 444.6 433.645407 
" clip-path="url(#pf956c52bdf)" style="fill: none; stroke: #0000ff; stroke-width: 1.5; stroke-linecap: square"/>
   </g>
   <g id="patch_21">
    <path d="M 23.4 483.554717 
L 23.4 428.535849 
" style="fill: none; stroke: #000000; stroke-width: 0.8; stroke-linejoin: miter; stroke-linecap: square"/>
   </g>
   <g id="patch_22">
    <path d="M 23.4 483.554717 
L 444.6 483.554717 
" style="fill: none; stroke: #000000; stroke-width: 0.8; stroke-linejoin: miter; stroke-linecap: square"/>
   </g>
  </g>
  <g id="axes_8">
   <g id="patch_23">
    <path d="M 23.4 549.577358 
L 444.6 549.577358 
L 444.6 494.558491 
L 23.4 494.558491 
z
" style="fill: #ffffff"/>
   </g>
   <g id="matplotlib.axis_15"/>
   <g id="matplotlib.axis_16">
    <g id="text_8">
     <!-- Debt -->
     <g transform="translate(16.295 539.292925) rotate(-90) scale(0.16 -0.16)">
      <defs>
       <path id="NewCM10-Book-62" d="M 1907 -70 
Q 1389 -70 1082 371 
L 870 0 
L 672 0 
L 672 3795 
Q 672 4019 598 4073 
Q 525 4128 179 4128 
L 179 4371 
L 1139 4442 
L 1139 2477 
Q 1498 2848 1971 2848 
Q 2554 2848 2944 2413 
Q 3334 1978 3334 1389 
Q 3334 787 2918 358 
Q 2502 -70 1907 -70 
z
M 1882 122 
Q 2330 122 2544 477 
Q 2758 832 2758 1395 
Q 2758 1978 2586 2266 
Q 2336 2656 1946 2656 
Q 1498 2656 1222 2266 
Q 1158 2170 1158 2048 
L 1158 749 
Q 1158 621 1242 493 
Q 1485 122 1882 122 
z
" transform="scale(0.015625)"/>
      </defs>
      <use xlink:href="#NewCM10-Book-44"/>
      <use xlink:href="#NewCM10-Book-65" x="76.399994"/>
      <use xlink:href="#NewCM10-Book-62" x="120.799988"/>
      <use xlink:href="#NewCM10-Book-74" x="176.399979"/>
     </g>
    </g>
   </g>
   <g id="line2d_8">
    <path d="M 23.4 539.948414 
L 33.162914 537.495033 
L 42.925828 536.627899 
L 52.796026 537.296165 
L 62.666225 535.51329 
L 72.321854 535.806349 
L 82.084768 534.47145 
L 91.954967 534.059235 
L 101.825166 533.158171 
L 111.480795 532.145859 
L 121.243709 531.288341 
L 131.113907 530.534198 
L 140.984106 530.040957 
L 150.639735 527.707147 
L 160.402649 526.542463 
L 170.272848 526.676708 
L 180.143046 525.133668 
L 189.90596 547.076501 
L 199.668874 545.136723 
L 209.539073 546.530693 
L 219.409272 543.283673 
L 229.064901 540.570427 
L 238.827815 538.937263 
L 248.698013 537.498299 
L 258.568212 535.456632 
L 268.223841 534.96513 
L 277.986755 533.730929 
L 287.856954 532.212137 
L 297.727152 523.281428 
L 307.382781 520.916866 
L 317.145695 519.014796 
L 327.015894 518.291318 
L 336.886093 511.438694 
L 346.649007 504.769203 
L 356.411921 503.879753 
L 366.282119 502.153337 
L 376.152318 500.612295 
L 385.807947 498.756901 
L 395.570861 498.632315 
L 405.44106 498.415228 
L 415.311258 497.059348 
L 424.966887 498.549882 
L 434.729801 499.553828 
L 444.6 498.026245 
" clip-path="url(#p11623d3abd)" style="fill: none; stroke: #0000ff; stroke-width: 1.5; stroke-linecap: square"/>
   </g>
   <g id="patch_24">
    <path d="M 23.4 549.577358 
L 23.4 494.558491 
" style="fill: none; stroke: #000000; stroke-width: 0.8; stroke-linejoin: miter; stroke-linecap: square"/>
   </g>
   <g id="patch_25">
    <path d="M 23.4 549.577358 
L 444.6 549.577358 
" style="fill: none; stroke: #000000; stroke-width: 0.8; stroke-linejoin: miter; stroke-linecap: square"/>
   </g>
  </g>
  <g id="axes_9">
   <g id="patch_26">
    <path d="M 23.4 615.6 
L 444.6 615.6 
L 444.6 560.581132 
L 23.4 560.581132 
z
" style="fill: #ffffff"/>
   </g>
   <g id="matplotlib.axis_17">
    <g id="xtick_1">
     <g id="text_9">
      <!-- 2012 -->
      <g transform="translate(7.4 633.705) scale(0.16 -0.16)">
       <defs>
        <path id="NewCM10-Book-32" d="M 1517 4262 
Q 2099 4262 2486 3913 
Q 2874 3565 2874 3008 
Q 2874 2669 2682 2336 
Q 2618 2214 2470 2054 
Q 2323 1894 2201 1776 
Q 2080 1658 1843 1446 
Q 1606 1235 1510 1146 
L 890 538 
L 1958 538 
Q 2490 538 2534 582 
Q 2592 666 2669 1152 
L 2880 1152 
L 2694 0 
L 320 0 
Q 320 147 326 176 
Q 333 205 397 275 
L 1600 1632 
Q 2253 2362 2253 3008 
Q 2253 3437 2032 3725 
Q 1811 4013 1434 4013 
Q 1146 4013 934 3843 
Q 723 3674 627 3424 
Q 646 3430 672 3430 
Q 826 3430 928 3328 
Q 1030 3226 1030 3072 
Q 1030 2925 928 2819 
Q 826 2714 678 2714 
Q 531 2714 425 2822 
Q 320 2931 320 3091 
Q 320 3578 675 3920 
Q 1030 4262 1517 4262 
z
" transform="scale(0.015625)"/>
        <path id="NewCM10-Book-30" d="M 1594 -141 
Q 1222 -141 950 32 
Q 678 205 531 518 
Q 384 832 317 1206 
Q 250 1581 250 2048 
Q 250 4262 1600 4262 
Q 1997 4262 2336 4000 
Q 2944 3520 2944 2048 
Q 2944 -141 1594 -141 
z
M 2310 3354 
Q 2253 3661 2070 3865 
Q 1888 4070 1594 4070 
Q 1434 4070 1222 3955 
Q 954 3808 870 3283 
Q 819 2963 819 2125 
Q 819 1363 845 1126 
Q 909 435 1165 218 
Q 1370 51 1594 51 
Q 2182 51 2304 819 
Q 2374 1242 2374 2125 
Q 2374 3021 2310 3354 
z
" transform="scale(0.015625)"/>
        <path id="NewCM10-Book-31" d="M 1722 4262 
Q 1843 4262 1872 4227 
Q 1901 4192 1901 4070 
L 1901 525 
Q 1901 352 1981 301 
Q 2061 250 2458 250 
L 2682 250 
L 2682 0 
Q 2438 19 1644 19 
Q 851 19 608 0 
L 608 250 
L 832 250 
Q 1216 250 1302 301 
Q 1389 352 1389 525 
L 1389 3763 
Q 1069 3610 570 3610 
L 570 3859 
Q 1331 3859 1722 4262 
z
" transform="scale(0.015625)"/>
       </defs>
       <use xlink:href="#NewCM10-Book-32"/>
       <use xlink:href="#NewCM10-Book-30" x="49.999985"/>
       <use xlink:href="#NewCM10-Book-31" x="99.999969"/>
       <use xlink:href="#NewCM10-Book-32" x="149.999954"/>
      </g>
     </g>
    </g>
    <g id="xtick_2">
     <g id="text_10">
      <!-- 2017 -->
      <g transform="translate(214.801942 633.705) scale(0.16 -0.16)">
       <defs>
        <path id="NewCM10-Book-37" d="M 3040 3866 
L 2195 2662 
Q 1741 2016 1741 557 
L 1741 230 
Q 1741 -141 1427 -141 
Q 1114 -141 1114 230 
Q 1114 1523 1888 2624 
L 2566 3584 
L 1312 3584 
Q 749 3584 717 3552 
Q 659 3507 563 2970 
L 352 2970 
L 570 4326 
L 768 4326 
Q 787 4237 819 4205 
Q 890 4122 1555 4122 
L 3104 4122 
Q 3104 3949 3040 3866 
z
" transform="scale(0.015625)"/>
       </defs>
       <use xlink:href="#NewCM10-Book-32"/>
       <use xlink:href="#NewCM10-Book-30" x="49.999985"/>
       <use xlink:href="#NewCM10-Book-31" x="99.999969"/>
       <use xlink:href="#NewCM10-Book-37" x="149.999954"/>
      </g>
     </g>
    </g>
    <g id="xtick_3">
     <g id="text_11">
      <!-- 2023 -->
      <g transform="translate(428.6 633.705) scale(0.16 -0.16)">
       <defs>
        <path id="NewCM10-Book-33" d="M 1939 2259 
Q 2349 2150 2637 1843 
Q 2925 1536 2925 1107 
Q 2925 570 2515 214 
Q 2106 -141 1562 -141 
Q 1069 -141 691 115 
Q 269 410 269 877 
Q 269 1267 646 1267 
Q 813 1267 918 1161 
Q 1024 1056 1024 889 
Q 1024 723 912 614 
Q 800 506 634 512 
Q 915 90 1542 90 
Q 1888 90 2057 378 
Q 2227 666 2227 1107 
Q 2227 2131 1504 2131 
L 1229 2131 
Q 1152 2131 1123 2134 
Q 1094 2138 1075 2160 
Q 1056 2182 1056 2227 
Q 1056 2310 1171 2330 
Q 1491 2330 1673 2403 
Q 1856 2477 1978 2694 
Q 2125 2970 2125 3373 
Q 2125 4051 1549 4051 
Q 1011 4051 762 3712 
Q 1126 3693 1126 3373 
Q 1126 3219 1030 3120 
Q 934 3021 781 3021 
Q 627 3021 531 3120 
Q 435 3219 435 3379 
Q 435 3789 813 4038 
Q 1146 4262 1574 4262 
Q 2016 4262 2362 4038 
Q 2758 3782 2758 3366 
Q 2758 2982 2518 2684 
Q 2278 2387 1939 2259 
z
" transform="scale(0.015625)"/>
       </defs>
       <use xlink:href="#NewCM10-Book-32"/>
       <use xlink:href="#NewCM10-Book-30" x="49.999985"/>
       <use xlink:href="#NewCM10-Book-32" x="99.999969"/>
       <use xlink:href="#NewCM10-Book-33" x="149.999954"/>
      </g>
     </g>
    </g>
   </g>
   <g id="matplotlib.axis_18">
    <g id="text_12">
     <!-- EV -->
     <g transform="translate(16.295 599.538066) rotate(-90) scale(0.16 -0.16)">
      <defs>
       <path id="NewCM10-Book-56" d="M 3981 3718 
L 2566 -6 
Q 2515 -141 2393 -141 
Q 2272 -141 2214 13 
L 742 3898 
Q 685 4058 582 4090 
Q 480 4122 122 4122 
L 122 4371 
L 954 4352 
Q 1478 4339 1882 4371 
L 1882 4122 
Q 1363 4122 1363 3968 
Q 1363 3955 1395 3859 
L 2586 730 
L 3718 3718 
Q 3750 3795 3750 3834 
Q 3750 4115 3283 4128 
L 3283 4371 
L 4032 4352 
Q 4262 4346 4672 4371 
L 4672 4122 
Q 4134 4115 3981 3718 
z
" transform="scale(0.015625)"/>
      </defs>
      <use xlink:href="#NewCM10-Book-45"/>
      <use xlink:href="#NewCM10-Book-56" x="68.099991"/>
     </g>
    </g>
   </g>
   <g id="line2d_9">
    <path d="M 23.4 612.036893 
L 32.941748 613.099142 
L 42.483495 611.496519 
L 52.130097 611.529324 
L 61.776699 608.462742 
L 71.213592 608.190673 
L 80.75534 606.669095 
L 90.401942 604.31322 
L 100.048544 603.49865 
L 109.485437 601.727977 
L 119.027184 602.138795 
L 128.673786 601.848651 
L 138.320388 601.198169 
L 147.757282 601.467773 
L 157.299029 604.709774 
L 166.945631 603.808984 
L 176.592233 603.600238 
L 186.133981 606.180826 
L 195.675728 605.20966 
L 205.32233 604.666177 
L 214.968932 602.402751 
L 224.405825 601.272239 
L 233.947573 599.483102 
L 243.594175 595.741009 
L 253.240777 596.274279 
L 262.67767 595.261754 
L 272.219417 592.865855 
L 281.866019 598.547387 
L 291.512621 592.766086 
L 300.949515 591.710299 
L 310.491262 591.116895 
L 320.137864 587.67242 
L 329.784466 597.08005 
L 339.326214 588.643167 
L 348.867961 584.548943 
L 358.514563 576.697285 
L 368.161165 572.506777 
L 377.598058 567.808016 
L 387.139806 567.702419 
L 396.786408 563.08199 
L 406.43301 566.325168 
L 415.869903 576.334234 
L 425.41165 579.929407 
L 435.058252 577.310895 
" clip-path="url(#p437614aa4c)" style="fill: none; stroke: #0000ff; stroke-width: 1.5; stroke-linecap: square"/>
   </g>
   <g id="patch_27">
    <path d="M 23.4 615.6 
L 23.4 560.581132 
" style="fill: none; stroke: #000000; stroke-width: 0.8; stroke-linejoin: miter; stroke-linecap: square"/>
   </g>
   <g id="patch_28">
    <path d="M 23.4 615.6 
L 444.6 615.6 
" style="fill: none; stroke: #000000; stroke-width: 0.8; stroke-linejoin: miter; stroke-linecap: square"/>
   </g>
  </g>
  <g id="text_13">
   <!-- Refined Firm Account Aggregation -->
   <g transform="translate(111.0575 24.415) scale(0.16 -0.16)">
    <defs>
     <path id="NewCM10-Book-66" d="M 1696 4512 
Q 1926 4512 2105 4381 
Q 2285 4250 2285 4045 
Q 2285 3738 1984 3738 
Q 1690 3738 1690 4038 
Q 1690 4224 1837 4301 
Q 1773 4320 1696 4320 
Q 1446 4320 1296 4064 
Q 1146 3808 1146 3488 
L 1146 2778 
L 1882 2778 
L 1882 2534 
L 1165 2534 
L 1165 518 
Q 1165 346 1232 298 
Q 1299 250 1619 250 
L 1773 250 
L 1773 0 
Q 1357 32 954 19 
L 218 0 
L 218 250 
Q 570 250 637 285 
Q 704 320 704 506 
L 704 2534 
L 211 2534 
L 211 2778 
L 704 2778 
L 704 3482 
Q 704 3910 989 4211 
Q 1274 4512 1696 4512 
z
" transform="scale(0.015625)"/>
     <path id="NewCM10-Book-69" d="M 1139 4099 
Q 1242 3994 1242 3846 
Q 1242 3699 1136 3590 
Q 1030 3482 883 3482 
Q 742 3482 636 3590 
Q 531 3699 531 3846 
Q 531 3994 636 4099 
Q 742 4205 889 4205 
Q 1037 4205 1139 4099 
z
M 915 19 
L 211 0 
L 211 250 
Q 557 250 624 285 
Q 691 320 691 506 
L 691 2208 
Q 691 2426 624 2477 
Q 557 2528 237 2528 
L 237 2771 
L 1152 2848 
L 1152 499 
Q 1152 326 1206 288 
Q 1261 250 1581 250 
L 1581 0 
L 915 19 
z
" transform="scale(0.015625)"/>
     <path id="NewCM10-Book-64" d="M 2394 -70 
L 2394 301 
Q 2074 -70 1581 -70 
Q 998 -70 608 365 
Q 218 800 218 1382 
Q 218 1984 634 2416 
Q 1050 2848 1645 2848 
Q 2106 2848 2413 2496 
L 2413 3795 
Q 2413 4019 2339 4073 
Q 2266 4128 1926 4128 
L 1926 4371 
L 2880 4442 
L 2880 576 
Q 2880 352 2953 297 
Q 3027 243 3373 243 
L 3373 0 
L 2394 -70 
z
M 1670 2656 
Q 1222 2656 1008 2301 
Q 794 1946 794 1376 
Q 794 800 966 512 
Q 1216 122 1606 122 
Q 2061 122 2330 550 
Q 2394 653 2394 774 
L 2394 2067 
Q 2394 2189 2330 2291 
Q 2086 2656 1670 2656 
z
" transform="scale(0.015625)"/>
     <path id="NewCM10-Book-20" transform="scale(0.015625)"/>
     <path id="NewCM10-Book-46" d="M 1760 4102 
Q 1562 4102 1517 4073 
Q 1472 4045 1472 3878 
L 1472 2304 
L 1990 2304 
Q 2406 2304 2521 2451 
Q 2637 2598 2637 3040 
L 2842 3040 
L 2842 1318 
L 2637 1318 
Q 2637 1766 2521 1910 
Q 2406 2054 1990 2054 
L 1472 2054 
L 1472 525 
Q 1472 397 1491 352 
Q 1542 250 2048 250 
L 2285 250 
L 2285 0 
Q 2029 19 1197 19 
Q 461 19 211 0 
L 211 250 
L 390 250 
Q 723 250 793 298 
Q 864 346 864 518 
L 864 3834 
Q 864 4006 793 4054 
Q 723 4102 390 4102 
L 211 4102 
L 211 4352 
L 3725 4352 
L 3910 2880 
L 3699 2880 
Q 3661 3168 3641 3286 
Q 3622 3405 3564 3552 
Q 3507 3699 3411 3821 
Q 3194 4102 2515 4102 
L 1760 4102 
z
" transform="scale(0.015625)"/>
     <path id="NewCM10-Book-72" d="M 2330 2419 
Q 2330 2291 2246 2204 
Q 2163 2118 2035 2118 
Q 1741 2118 1741 2413 
Q 1741 2547 1837 2643 
Q 1466 2637 1274 2221 
Q 1126 1901 1126 1485 
L 1126 518 
Q 1126 346 1193 294 
Q 1261 243 1581 243 
L 1734 243 
L 1734 0 
Q 1318 32 915 19 
L 179 0 
L 179 243 
Q 531 243 598 281 
Q 666 320 666 506 
L 666 2189 
Q 666 2406 592 2460 
Q 518 2515 179 2515 
L 179 2758 
L 1101 2829 
L 1101 2246 
Q 1350 2829 1843 2829 
Q 2042 2829 2186 2713 
Q 2330 2598 2330 2419 
z
" transform="scale(0.015625)"/>
     <path id="NewCM10-Book-6d" d="M 2016 2643 
Q 1651 2643 1417 2348 
Q 1184 2054 1184 1658 
L 1184 506 
Q 1184 320 1254 281 
Q 1325 243 1683 243 
L 1683 0 
L 947 19 
L 205 0 
L 205 243 
Q 557 243 627 281 
Q 698 320 698 506 
L 698 2189 
Q 698 2406 624 2460 
Q 550 2515 205 2515 
L 205 2758 
L 1146 2829 
L 1146 2253 
Q 1453 2829 2061 2829 
Q 2778 2829 2912 2266 
Q 3219 2829 3821 2829 
Q 4582 2829 4678 2240 
Q 4710 2061 4710 1606 
L 4710 410 
Q 4710 294 4803 268 
Q 4896 243 5203 243 
L 5203 0 
L 4467 19 
L 3725 0 
L 3725 243 
Q 4083 243 4153 281 
Q 4224 320 4224 506 
L 4224 1965 
Q 4224 2643 3776 2643 
Q 3418 2643 3184 2348 
Q 2950 2054 2950 1658 
L 2950 506 
Q 2950 320 3017 281 
Q 3085 243 3443 243 
L 3443 0 
L 2707 19 
L 1965 0 
L 1965 243 
Q 2323 243 2390 281 
Q 2458 320 2458 506 
L 2458 1965 
Q 2458 2643 2016 2643 
z
" transform="scale(0.015625)"/>
     <path id="NewCM10-Book-63" d="M 1606 2662 
Q 1331 2662 1142 2473 
Q 954 2285 870 2009 
Q 787 1734 787 1395 
Q 787 685 1101 390 
Q 1370 134 1645 134 
Q 2246 134 2445 781 
Q 2470 858 2547 858 
Q 2656 858 2656 774 
Q 2656 736 2630 653 
Q 2554 422 2336 205 
Q 2067 -70 1587 -70 
Q 1005 -70 611 362 
Q 218 794 218 1382 
Q 218 1990 611 2428 
Q 1005 2867 1600 2867 
Q 1997 2867 2291 2678 
Q 2586 2490 2586 2170 
Q 2586 1850 2272 1850 
Q 1958 1850 1958 2163 
Q 1958 2272 2032 2361 
Q 2106 2451 2221 2470 
Q 2010 2662 1606 2662 
z
" transform="scale(0.015625)"/>
     <path id="NewCM10-Book-6f" d="M 1594 -70 
Q 1005 -70 592 352 
Q 179 774 179 1370 
Q 179 1978 588 2422 
Q 998 2867 1600 2867 
Q 2202 2867 2608 2422 
Q 3014 1978 3014 1370 
Q 3014 774 2601 352 
Q 2189 -70 1594 -70 
z
M 1600 134 
Q 2445 134 2445 1421 
Q 2445 2016 2285 2285 
Q 2042 2682 1594 2682 
Q 1126 2682 896 2272 
Q 749 2003 749 1421 
Q 749 813 902 544 
Q 1139 134 1600 134 
z
" transform="scale(0.015625)"/>
     <path id="NewCM10-Book-67" d="M 2758 2899 
Q 2906 2899 3005 2806 
Q 3104 2714 3104 2566 
Q 3104 2349 2899 2349 
Q 2688 2349 2688 2560 
Q 2688 2656 2739 2707 
Q 2458 2707 2221 2490 
Q 2470 2246 2470 1875 
Q 2470 1478 2160 1203 
Q 1850 928 1427 928 
Q 1075 928 806 1114 
Q 723 998 723 851 
Q 723 698 809 586 
Q 896 474 1030 454 
Q 1075 448 1498 448 
Q 1901 448 2144 413 
Q 2387 378 2592 269 
Q 3014 32 3014 -480 
Q 3014 -909 2490 -1139 
Q 2086 -1318 1594 -1318 
Q 1114 -1318 710 -1139 
Q 179 -909 179 -493 
Q 179 -262 339 -92 
Q 499 77 723 154 
Q 480 339 480 704 
Q 480 998 666 1229 
Q 378 1478 378 1882 
Q 378 2278 691 2553 
Q 1005 2829 1427 2829 
Q 1798 2829 2086 2611 
Q 2394 2899 2758 2899 
z
M 1427 2630 
Q 902 2630 902 1875 
Q 902 1120 1427 1120 
Q 1946 1120 1946 1882 
Q 1946 2630 1427 2630 
z
M 1050 26 
Q 851 26 704 -131 
Q 557 -288 557 -493 
Q 557 -800 947 -979 
Q 1254 -1120 1600 -1120 
Q 1952 -1120 2253 -979 
Q 2637 -800 2637 -493 
Q 2637 -128 2227 -38 
Q 1920 26 1421 26 
L 1050 26 
z
" transform="scale(0.015625)"/>
     <path id="NewCM10-Book-61" d="M 3091 582 
Q 3091 314 2944 138 
Q 2797 -38 2547 -38 
Q 2349 -38 2217 93 
Q 2086 224 2048 416 
Q 1798 -70 1235 -70 
Q 698 -70 390 205 
Q 205 371 205 621 
Q 205 1165 851 1459 
Q 1242 1645 1990 1690 
L 1990 1901 
Q 1990 2227 1814 2454 
Q 1638 2682 1350 2682 
Q 934 2682 723 2438 
Q 1018 2406 1018 2125 
Q 1018 1811 704 1811 
Q 384 1811 384 2131 
Q 384 2464 678 2665 
Q 973 2867 1363 2867 
Q 1709 2867 2000 2700 
Q 2291 2534 2406 2259 
Q 2477 2086 2477 1754 
L 2477 493 
Q 2477 390 2534 297 
Q 2592 205 2682 205 
Q 2886 205 2886 582 
L 2886 960 
L 3091 960 
L 3091 582 
z
M 1280 115 
Q 1594 115 1792 345 
Q 1990 576 1990 902 
L 1990 1510 
Q 1658 1491 1386 1401 
Q 1114 1312 928 1110 
Q 742 909 742 627 
Q 742 410 899 262 
Q 1056 115 1280 115 
z
" transform="scale(0.015625)"/>
    </defs>
    <use xlink:href="#NewCM10-Book-52"/>
    <use xlink:href="#NewCM10-Book-65" x="73.599991"/>
    <use xlink:href="#NewCM10-Book-66" x="117.999985"/>
    <use xlink:href="#NewCM10-Book-69" x="148.599976"/>
    <use xlink:href="#NewCM10-Book-6e" x="176.399963"/>
    <use xlink:href="#NewCM10-Book-65" x="231.999954"/>
    <use xlink:href="#NewCM10-Book-64" x="276.399948"/>
    <use xlink:href="#NewCM10-Book-20" x="331.999939"/>
    <use xlink:href="#NewCM10-Book-46" x="365.299927"/>
    <use xlink:href="#NewCM10-Book-69" x="430.599915"/>
    <use xlink:href="#NewCM10-Book-72" x="458.399902"/>
    <use xlink:href="#NewCM10-Book-6d" x="497.599899"/>
    <use xlink:href="#NewCM10-Book-20" x="580.899887"/>
    <use xlink:href="#NewCM10-Book-41" x="614.199875"/>
    <use xlink:href="#NewCM10-Book-63" x="686.44986"/>
    <use xlink:href="#NewCM10-Book-63" x="730.849854"/>
    <use xlink:href="#NewCM10-Book-6f" x="775.249847"/>
    <use xlink:href="#NewCM10-Book-75" x="825.249832"/>
    <use xlink:href="#NewCM10-Book-6e" x="880.849823"/>
    <use xlink:href="#NewCM10-Book-74" x="933.699814"/>
    <use xlink:href="#NewCM10-Book-20" x="972.599808"/>
    <use xlink:href="#NewCM10-Book-41" x="1005.899796"/>
    <use xlink:href="#NewCM10-Book-67" x="1080.89978"/>
    <use xlink:href="#NewCM10-Book-67" x="1130.899765"/>
    <use xlink:href="#NewCM10-Book-72" x="1180.89975"/>
    <use xlink:href="#NewCM10-Book-65" x="1220.099747"/>
    <use xlink:href="#NewCM10-Book-67" x="1264.499741"/>
    <use xlink:href="#NewCM10-Book-61" x="1314.499725"/>
    <use xlink:href="#NewCM10-Book-74" x="1364.49971"/>
    <use xlink:href="#NewCM10-Book-69" x="1403.399704"/>
    <use xlink:href="#NewCM10-Book-6f" x="1431.199692"/>
    <use xlink:href="#NewCM10-Book-6e" x="1481.199677"/>
   </g>
  </g>
 </g>
 <defs>
  <clipPath id="p45d60f1943">
   <rect x="23.4" y="32.4" width="421.2" height="55.018868"/>
  </clipPath>
  <clipPath id="p53982dc1c1">
   <rect x="23.4" y="98.422642" width="421.2" height="55.018868"/>
  </clipPath>
  <clipPath id="pada7553327">
   <rect x="23.4" y="164.445283" width="421.2" height="55.018868"/>
  </clipPath>
  <clipPath id="pec25c12a57">
   <rect x="23.4" y="230.467925" width="421.2" height="55.018868"/>
  </clipPath>
  <clipPath id="pb87fd62982">
   <rect x="23.4" y="296.490566" width="421.2" height="55.018868"/>
  </clipPath>
  <clipPath id="p3cf20c6750">
   <rect x="23.4" y="362.513208" width="421.2" height="55.018868"/>
  </clipPath>
  <clipPath id="pf956c52bdf">
   <rect x="23.4" y="428.535849" width="421.2" height="55.018868"/>
  </clipPath>
  <clipPath id="p11623d3abd">
   <rect x="23.4" y="494.558491" width="421.2" height="55.018868"/>
  </clipPath>
  <clipPath id="p437614aa4c">
   <rect x="23.4" y="560.581132" width="421.2" height="55.018868"/>
  </clipPath>
 </defs>
</svg>
